<svg width="24" height="25" viewBox="0 0 24 25" fill="none" xmlns="http://www.w3.org/2000/svg">
<path d="M22 7.96387H16C15.59 7.96387 15.25 7.62387 15.25 7.21387C15.25 6.80387 15.59 6.46387 16 6.46387H22C22.41 6.46387 22.75 6.80387 22.75 7.21387C22.75 7.62387 22.41 7.96387 22 7.96387Z" fill="#3776B8"/>
<path d="M6 7.96387H2C1.59 7.96387 1.25 7.62387 1.25 7.21387C1.25 6.80387 1.59 6.46387 2 6.46387H6C6.41 6.46387 6.75 6.80387 6.75 7.21387C6.75 7.62387 6.41 7.96387 6 7.96387Z" fill="#3776B8"/>
<path d="M10 11.4639C7.66 11.4639 5.75 9.55387 5.75 7.21387C5.75 4.87387 7.66 2.96387 10 2.96387C12.34 2.96387 14.25 4.87387 14.25 7.21387C14.25 9.55387 12.34 11.4639 10 11.4639ZM10 4.46387C8.48 4.46387 7.25 5.69387 7.25 7.21387C7.25 8.73387 8.48 9.96387 10 9.96387C11.52 9.96387 12.75 8.73387 12.75 7.21387C12.75 5.69387 11.52 4.46387 10 4.46387Z" fill="#3776B8"/>
<path d="M22 18.9639H18C17.59 18.9639 17.25 18.6239 17.25 18.2139C17.25 17.8039 17.59 17.4639 18 17.4639H22C22.41 17.4639 22.75 17.8039 22.75 18.2139C22.75 18.6239 22.41 18.9639 22 18.9639Z" fill="#3776B8"/>
<path d="M8 18.9639H2C1.59 18.9639 1.25 18.6239 1.25 18.2139C1.25 17.8039 1.59 17.4639 2 17.4639H8C8.41 17.4639 8.75 17.8039 8.75 18.2139C8.75 18.6239 8.41 18.9639 8 18.9639Z" fill="#3776B8"/>
<path d="M14 22.4639C11.66 22.4639 9.75 20.5539 9.75 18.2139C9.75 15.8739 11.66 13.9639 14 13.9639C16.34 13.9639 18.25 15.8739 18.25 18.2139C18.25 20.5539 16.34 22.4639 14 22.4639ZM14 15.4639C12.48 15.4639 11.25 16.6939 11.25 18.2139C11.25 19.7339 12.48 20.9639 14 20.9639C15.52 20.9639 16.75 19.7339 16.75 18.2139C16.75 16.6939 15.52 15.4639 14 15.4639Z" fill="#3776B8"/>
</svg>
